<?xml version="1.0" encoding="utf-8"?>
<!-- Generator: Adobe Illustrator 27.5.0, SVG Export Plug-In . SVG Version: 6.00 Build 0)  -->
<svg version="1.1" xmlns="http://www.w3.org/2000/svg" xmlns:xlink="http://www.w3.org/1999/xlink" x="0px" y="0px"
	 viewBox="0 0 500 500" style="enable-background:new 0 0 500 500;" xml:space="preserve">
<g id="BACKGROUND">
	<rect style="fill:#FFFFFF;" width="500" height="500"/>
</g>
<g id="OBJECTS">
	<g>
		<path style="fill:#FFEFE6;" d="M173,261c0,0-1-161,0-203c0,0,119-7,187,0c0,0,1,161,0,201C360,259,248,266,173,261z"/>
		<path style="fill:#FFFAF5;" d="M185.432,69.78l3.284,82.088c0,0,39.406,2.673,68.961,0c0,0,0-75.248,0-82.088
			C257.677,69.78,228.122,65.775,185.432,69.78z"/>
		<path style="fill:#FFFAF5;" d="M273.243,69.78l1.095,82.088c0,0,41.595,2.673,71.15,0c0,0,0-75.248,0-82.088
			C345.488,69.78,315.933,65.775,273.243,69.78z"/>
		<path style="fill:#FFFAF5;" d="M185.432,165.875l3.284,84.019c0,0,41.595,2.489,68.961,0c0,0,0-77.017,0-84.019
			C257.677,165.875,228.122,163.719,185.432,165.875z"/>
		<path style="fill:#FFFAF5;" d="M273.243,165.875l-1.095,84.019c0,0,51.447,2.489,73.339,0c0,0,0-77.017,0-84.019
			C345.488,165.875,313.744,161.53,273.243,165.875z"/>
	</g>
	<g>
		<path style="fill:#FFDCCA;" d="M99.143,223.983c-0.265-0.639-0.892-0.803-1.439-0.38c-3.802,2.938-6.78,6.758-8.684,11.172
			c-0.322,0.745-0.611,1.501-0.866,2.267c-0.293-4.305-0.881-8.606-1.695-12.824c7.838-6.477,8.223-18.153,5.754-27.211
			c-0.186-0.681-1.203-0.856-1.548-0.202c-2.658,5.037-5.964,11.184-6.627,17.263c-0.049-0.174-0.097-0.349-0.147-0.522
			c-1.303-4.525-3.012-8.868-4.891-13.136c0.2-0.031,0.392-0.152,0.526-0.396c4.79-8.693,5.613-19.273,2.979-28.764
			c-0.235-0.845-1.309-0.719-1.593,0c-1.927,4.879-3.86,9.813-4.625,15.033c-0.346,2.359-0.536,5.139-0.2,7.776
			c-2.741-5.807-5.583-11.572-7.922-17.566c0.017-0.019,0.035-0.036,0.05-0.057c4.738-6.289,6.585-14.321,5.051-22.043
			c-0.114-0.571-0.952-0.64-1.221-0.16c-1.905,3.398-3.806,6.839-4.798,10.633c-0.586,2.243-0.827,4.493-0.836,6.758
			c-0.781-2.387-1.447-4.813-1.952-7.266c2.696-3.596,2.949-8.626,3.258-12.991c0.379-5.354-0.042-10.643-1.031-15.909
			c-0.107-0.569-0.908-0.596-1.178-0.154c-2.976,4.856-6.035,9.937-6.604,15.728c-0.481,4.897,0.71,10.399,4.559,13.692
			c0.433,2.225,1.003,4.429,1.676,6.61c-1.061-1.284-2.277-2.452-3.523-3.522c-2.478-2.129-5.269-3.799-8.6-3.952
			c-0.458-0.021-0.763,0.534-0.526,0.916c3.119,5.011,7.627,11.836,14.313,11.747c0.051,0.078,0.115,0.126,0.184,0.161
			c1.523,4.003,3.299,7.927,5.096,11.767c0.583,1.245,1.166,2.49,1.747,3.736c-4.217-5.11-10.011-8.99-16.137-11.286
			c-0.6-0.225-1.222,0.458-1.036,1.036c2.675,8.33,10.803,16.556,20.049,16.57c1.528,3.484,2.955,7.01,4.157,10.627
			c0.829,2.494,1.565,5.019,2.213,7.567c-1.479-2.311-3.265-4.445-5.122-6.404c-1.745-1.842-3.635-3.541-5.646-5.088
			c-1.943-1.495-4.175-3.483-6.748-3.485c-0.629,0-1.02,0.698-0.711,1.239c2.985,5.225,4.783,11.204,8.686,15.873
			c2.437,2.914,7.069,6.57,11.281,5.992c0.322,1.846,0.597,3.7,0.822,5.56c0.266,2.199,0.438,4.389,0.545,6.577
			c-1.05-1.359-2.327-2.569-3.759-3.629c-3.747-2.772-8.418-5.201-13.167-5.23c-0.623-0.004-1.112,0.745-0.743,1.296
			c2.548,3.802,3.843,8.087,7.692,10.883c2.945,2.14,6.522,3.265,10.121,3.687c-0.015,3.634-0.144,7.273-0.277,10.937
			c-0.028,0.779,1.258,0.985,1.388,0.188c0.56-3.434,0.851-6.945,0.914-10.487c0.172-0.011,0.334-0.065,0.46-0.163
			c3.842-1.185,6.619-4.281,8.234-7.908c0.962-2.159,1.552-4.458,2.055-6.76C99.525,227.838,99.933,225.885,99.143,223.983z"/>
		<path style="fill:#FFDCCA;" d="M88.927,212.806c0.307-0.824,1.033-1.035,1.665-0.49c4.398,3.791,7.844,8.719,10.048,14.415
			c0.372,0.962,0.706,1.937,1.002,2.925c0.339-5.554,1.019-11.104,1.961-16.545c-9.068-8.356-9.514-23.421-6.657-35.108
			c0.215-0.878,1.392-1.104,1.791-0.261c3.075,6.499,6.9,14.43,7.667,22.273c0.057-0.224,0.113-0.45,0.171-0.673
			c1.508-5.838,3.485-11.441,5.659-16.948c-0.232-0.04-0.453-0.197-0.608-0.511c-5.541-11.216-6.494-24.866-3.447-37.112
			c0.271-1.09,1.515-0.928,1.843,0c2.229,6.295,4.466,12.661,5.352,19.395c0.4,3.043,0.62,6.63,0.231,10.032
			c3.172-7.493,6.46-14.93,9.166-22.663c-0.02-0.024-0.04-0.046-0.058-0.074c-5.481-8.114-7.618-18.477-5.844-28.439
			c0.131-0.737,1.102-0.826,1.413-0.206c2.204,4.384,4.403,8.823,5.551,13.718c0.678,2.894,0.957,5.797,0.967,8.72
			c0.903-3.08,1.674-6.209,2.258-9.374c-3.119-4.64-3.412-11.129-3.77-16.761c-0.438-6.908,0.048-13.731,1.193-20.526
			c0.124-0.734,1.05-0.768,1.363-0.199c3.443,6.265,6.983,12.821,7.641,20.293c0.556,6.318-0.822,13.417-5.274,17.666
			c-0.501,2.871-1.161,5.714-1.939,8.528c1.227-1.657,2.635-3.163,4.076-4.545c2.867-2.747,6.096-4.901,9.95-5.098
			c0.53-0.027,0.883,0.689,0.608,1.182c-3.608,6.465-8.825,15.271-16.56,15.156c-0.059,0.1-0.133,0.162-0.213,0.207
			c-1.763,5.165-3.817,10.227-5.897,15.182c-0.674,1.606-1.349,3.212-2.021,4.82c4.879-6.593,11.582-11.6,18.671-14.561
			c0.694-0.29,1.414,0.591,1.199,1.337c-3.095,10.748-12.499,21.361-23.197,21.379c-1.768,4.495-3.419,9.044-4.81,13.711
			c-0.959,3.217-1.811,6.475-2.56,9.763c1.711-2.981,3.778-5.735,5.926-8.262c2.019-2.377,4.206-4.569,6.533-6.565
			c2.249-1.929,4.83-4.494,7.807-4.497c0.728-0.001,1.18,0.901,0.822,1.599c-3.453,6.742-5.533,14.456-10.05,20.48
			c-2.819,3.76-8.179,8.476-13.052,7.732c-0.372,2.382-0.691,4.774-0.951,7.174c-0.307,2.837-0.506,5.663-0.63,8.486
			c1.215-1.753,2.692-3.315,4.35-4.682c4.335-3.576,9.74-6.71,15.234-6.747c0.721-0.005,1.287,0.961,0.86,1.672
			c-2.948,4.905-4.446,10.434-8.899,14.042c-3.407,2.761-7.546,4.212-11.71,4.757c0.018,4.688,0.167,9.383,0.321,14.111
			c0.033,1.005-1.456,1.271-1.606,0.242c-0.647-4.431-0.985-8.961-1.058-13.531c-0.198-0.015-0.386-0.084-0.532-0.211
			c-4.446-1.529-7.658-5.524-9.527-10.203c-1.112-2.785-1.796-5.752-2.378-8.721C88.485,217.78,88.012,215.259,88.927,212.806z"/>
		<g>
			<path style="fill:#FFEFE6;" d="M129.297,259.229c0,1.891-0.026,4.01-0.095,6.326c-0.095,3.764-0.284,8.047-0.619,12.728
				c-0.155,2.157-0.344,4.396-0.567,6.711c-0.584,6.123-1.435,12.759-2.63,19.679c-0.395,2.271-0.825,4.567-1.298,6.889
				c-0.868,4.276-1.882,8.641-3.06,13.031c-0.404,1.537-0.834,3.074-1.289,4.618c-1.556,5.333-3.369,10.691-5.466,15.979
				c-0.447,1.12-1.693,1.961-3.249,2.189c-3.996,0.594-13.141,1.385-30.434,0.348c-1.857-0.114-3.404-1.107-3.808-2.448
				c-0.705-2.341-1.865-6.465-3.171-12.139c-0.464-2.005-0.945-4.2-1.427-6.585c-0.911-4.466-1.831-9.583-2.682-15.277
				c-0.258-1.759-0.516-3.574-0.765-5.44c-0.507-3.897-0.971-8.021-1.367-12.361c-0.215-2.284-0.404-4.631-0.567-7.028
				c-0.353-4.991-0.602-10.229-0.722-15.682c-0.043-1.91-0.069-3.846-0.077-5.807c-0.026-4.314,0.034-8.749,0.198-13.297
				c0.06-1.613,1.779-2.929,3.962-3.043c8.337-0.411,29.351-1.176,55.023,0.025c2.2,0.107,3.945,1.43,3.997,3.055
				C129.246,253.48,129.306,256.035,129.297,259.229z"/>
			<path style="fill:#FFFAF5;" d="M129.297,259.229c0,1.891-0.026,4.01-0.095,6.326c-12.858,2.214-25.904,3.669-39.08,4.498
				c-7.924,0.5-15.9,0.848-23.85,0.715h-0.189c-0.043-1.91-0.069-3.846-0.077-5.807c0.645-0.006,1.281-0.019,1.908-0.044
				c7.142-0.259,14.267-0.487,21.392-0.98C102.748,263,116.096,261.33,129.297,259.229z"/>
			<path style="fill:#FFFAF5;" d="M128.584,278.283c-0.155,2.157-0.344,4.396-0.567,6.711c-1.719,0.411-3.429,0.803-5.105,1.196
				c-8.01,1.879-16.149,3.378-24.409,4.516c-10.245,1.411-20.679,2.442-31.13,2.771c-0.215-2.284-0.404-4.631-0.567-7.028
				c10.064-0.348,20.086-1.006,30.047-2.315c8.002-1.05,15.96-2.391,23.79-3.992C123.307,279.599,125.945,278.947,128.584,278.283z"
				/>
			<path style="fill:#FFFAF5;" d="M125.387,304.673c-0.395,2.271-0.825,4.567-1.298,6.889c-2.441,0.253-4.908,0.449-7.374,0.62
				c-9.093,0.639-18.195,0.683-27.323,0.449c-6.592-0.164-13.391-0.417-19.888-1.353c-0.258-1.759-0.516-3.574-0.765-5.44
				c7.666,0.809,15.694,0.677,23.068,0.639c8.302-0.038,16.648-0.253,24.908-0.898C119.62,305.344,122.507,305.022,125.387,304.673z
				"/>
			<path style="fill:#FFFAF5;" d="M121.029,324.593c-0.404,1.537-0.834,3.074-1.289,4.618c-10.15,1.601-20.378,2.828-30.838,3.441
				c-5.054,0.297-10.176,0.506-15.29,0.487c-0.464-2.005-0.945-4.2-1.427-6.585c6.119,0.202,12.256,0.076,18.367-0.07
				C100.677,326.251,110.922,325.688,121.029,324.593z"/>
		</g>
	</g>
	<g>
		<g>
			<path style="fill:#FFF1E9;" d="M288.824,328.09c-2.558,0.03-5.332,0.675-7.293,2.405c-0.31,0.273,0.085,0.678,0.41,0.531
				c2.29-1.031,4.323-1.823,6.883-1.776C289.57,329.264,289.572,328.082,288.824,328.09z"/>
			<path style="fill:#FFF1E9;" d="M289.816,332.391c-2.355-0.547-5.294-1.048-7.632-0.225c-0.316,0.111-0.241,0.524,0.076,0.561
				c1.141,0.134,2.31,0.017,3.46,0.099c1.292,0.092,2.544,0.332,3.793,0.667C290.225,333.684,290.532,332.557,289.816,332.391z"/>
			<path style="fill:#FFF1E9;" d="M266.028,332.391c-2.074-0.997-4.707-0.701-6.844-0.057c-0.567,0.171-0.306,1.082,0.243,0.881
				c2.236-0.815,4.226-0.653,6.535-0.579C266.087,332.641,266.147,332.448,266.028,332.391z"/>
			<path style="fill:#FFF1E9;" d="M265.815,333.726c-2.148-0.525-4.913,0.835-6.687,1.944c-0.596,0.372-0.033,1.33,0.55,0.941
				c1.028-0.686,2.119-1.259,3.289-1.668c0.95-0.332,1.988-0.414,2.898-0.832C266.033,334.035,265.982,333.767,265.815,333.726z"/>
		</g>
		<path style="fill:#FFEFE6;" d="M160.02,339.554c-40.423,3.223-83.004,7.192-116.194,30.491
			c-7.537,5.291-15.113,13.258-13.564,22.336c1.425,8.352,10.201,13.548,18.574,14.846c8.373,1.299,16.961-0.117,25.377,0.858
			s17.435,5.355,19.813,13.487c1.126,3.852,0.592,7.977,1.054,11.963c1.166,10.057,8.771,18.522,17.83,23.043
			c9.059,4.521,19.419,5.657,29.54,5.895c63.118,1.485,122.884-28.835,185.815-33.918c39.516-3.192,81.078,3.367,117.579-12.106
			c6.796-2.881,13.547-6.728,17.593-12.903c4.046-6.174,4.558-15.165-0.537-20.507c-5.652-5.926-17.281-7.478-17.65-15.659
			c-0.311-6.897,8.766-12.802,5.959-19.109c-0.768-1.726-2.324-2.971-3.944-3.944c-6.132-3.682-13.567-4.289-20.703-4.765
			c-62.167-4.144-124.534-5.289-186.811-3.427c-33.948,1.014-68.258,2.987-100.771,12.803"/>
		<g>
			<path style="fill:#1E2144;" d="M301.959,192.19c-1.672,5.473-2.331,11.242-2.33,16.978c0.001,5.73,1.125,11.621-1.507,16.986
				c-2.644,5.389-8.495,7.972-13.664,10.732c-5.17,2.76-10.608,7.003-10.922,13.047c-0.411,7.915,8.307,14.829,5.994,22.381
				c-1.181,3.856-4.856,6.151-8.148,8.3c-4.313,2.816-8.547,6.092-11.133,10.659c-2.586,4.567-3.179,10.703-0.266,15.051
				c2.828,4.221,8.049,5.765,12.879,6.851c37.434,8.415,76.799,6.644,113.716-3.965c7.972-2.291,16.174-5.198,21.945-11.369
				c5.771-6.171,8.229-16.52,3.419-23.53c-3.09-4.503-8.333-6.693-12.71-9.83c-4.377-3.137-8.299-8.606-6.557-13.836
				c0.789-2.369,2.608-4.191,3.804-6.367c2.753-5.005,1.681-11.946-2.439-15.799c-3.93-3.676-9.935-4.536-13.284-8.791
				c-3.792-4.818-2.689-11.825-3.216-18.032c-1.869-22.016-26.263-39.176-46.573-35.826c-12.851,2.119-23.871,11.749-28.372,24.425
				C302.37,190.895,302.158,191.541,301.959,192.19z"/>
			<g>
				<g>
					<g>
						<path style="fill:#FF9988;" d="M352.235,263.195h-26.691c2.835-3.779,4.195-10.696,4.835-17.107
							c0.766-7.672,0.503-14.625,0.503-14.625h17.499c-0.101,5.864,0.315,11.416,0.908,16.188
							C350.432,256.883,352.235,263.195,352.235,263.195z"/>
						<path style="fill:#ED7966;" d="M349.289,247.652c-6.274,1.303-12.93,0.733-18.91-1.563c0.766-7.672,0.503-14.625,0.503-14.625
							h17.499C348.28,237.328,348.695,242.879,349.289,247.652z"/>
					</g>
					<g>
						<path style="fill:#ED7966;" d="M361.918,213.618c1.361-0.911,3.116-1.451,4.623-0.823c1.569,0.654,2.45,2.404,2.712,4.109
							c0.575,3.735-1.227,7.511-3.807,10.231c-0.941,0.992-2.025,1.902-3.32,2.307c-1.295,0.405-2.836,0.215-3.795-0.76
							c-0.792-0.805-1.072-1.993-1.166-3.128C356.815,221.307,358.275,216.057,361.918,213.618z"/>
						<path style="fill:#ED7966;" d="M315.891,213.618c-1.361-0.911-3.116-1.451-4.623-0.823c-1.569,0.654-2.45,2.404-2.712,4.109
							c-0.575,3.735,1.227,7.511,3.807,10.231c0.941,0.992,2.025,1.902,3.32,2.307c1.295,0.405,2.836,0.215,3.795-0.76
							c0.792-0.805,1.072-1.993,1.166-3.128C320.994,221.307,319.533,216.057,315.891,213.618z"/>
						<path style="fill:#FF9988;" d="M315.33,220.471c0.882,4.474,2.02,8.979,4.353,12.876c3.804,6.355,10.804,10.604,18.105,10.99
							c7.301,0.385,14.696-3.103,19.125-9.023c4.036-5.394,5.521-12.283,6.627-18.969c1.644-9.938,2.422-21.076-3.472-29.173
							c-1.892-2.6-4.379-4.713-7.095-6.395c-6.767-4.19-15.251-5.695-22.833-3.358c-7.64,2.355-13.333,8.656-16.358,16.043
							C310.686,201.027,313.809,212.757,315.33,220.471z"/>
					</g>
				</g>
				<g>
					<path style="fill:#ED7966;" d="M341.232,222.626c-1.068-0.021-3.057,0.508-3.905-0.239c-0.754-0.664,0.053-2.808,0.25-3.662
						c0.28-1.215,0.598-2.423,0.962-3.616c0.369-1.212,0.898-2.422,1.018-3.689c0.031-0.327-0.45-0.52-0.661-0.274
						c-1.137,1.33-1.692,3.261-2.244,4.897c-0.57,1.688-1.189,3.51-1.372,5.289c-0.129,1.254,0.219,2.449,1.452,2.978
						c1.482,0.635,3.505,0.535,4.883-0.273C342.27,223.653,341.978,222.641,341.232,222.626z"/>
					<path style="fill:#FFFFFF;" d="M346.613,229.026c-2.774-1.135-5.874-1.36-8.838-1.126c-0.834,0.066-7.278,0.634-6.643,2.154
						c1.299,3.112,4.961,4.942,8.128,4.844c3.183-0.099,6.253-2.035,7.724-4.977C347.162,229.562,346.921,229.152,346.613,229.026z"
						/>
					<path style="fill:#1E2144;" d="M330.948,209.289c-0.53-2.315-2.737-3.962-5.103-3.868c-2.478,0.099-4.132,1.989-4.913,4.198
						c-0.112,0.318,0.37,0.618,0.586,0.341c1.109-1.422,2.141-2.986,4.12-3.14c2.035-0.158,3.376,1.251,4.106,2.976
						C330.044,210.51,331.107,209.984,330.948,209.289z"/>
					<path style="fill:#1E2144;" d="M345.697,209.289c0.53-2.315,2.737-3.962,5.103-3.868c2.478,0.099,4.132,1.989,4.913,4.198
						c0.112,0.318-0.37,0.618-0.586,0.341c-1.109-1.422-2.141-2.986-4.12-3.14c-2.036-0.158-3.376,1.251-4.106,2.976
						C346.6,210.51,345.538,209.984,345.697,209.289z"/>
					<path style="fill:#1E2144;" d="M331.165,214.943c-3.291-0.507-6.758-0.568-9.948,0.408c-0.441,0.135-0.649,0.542-0.625,0.911
						c-0.172,0.106-0.337,0.218-0.494,0.339c-0.375,0.289-0.045,0.779,0.374,0.807c1.692,0.109,3.45-0.412,5.136-0.556
						c1.759-0.15,3.507-0.134,5.264,0.031C332.1,216.998,332.393,215.132,331.165,214.943z"/>
					<path style="fill:#1E2144;" d="M355.773,215.01c-3.377-0.881-7.077-0.971-10.307,0.485c-0.808,0.364-0.184,1.445,0.559,1.325
						c0.147-0.024,0.293-0.046,0.439-0.068c0.144,0.148,0.359,0.235,0.657,0.208c1.323-0.118,2.6-0.441,3.939-0.465
						c1.416-0.025,2.795,0.158,4.174,0.471C356.503,217.255,357.042,215.341,355.773,215.01z"/>
				</g>
				<path style="fill:#1E2144;" d="M340.694,186.526c5.518,5.246,11.348,10.162,17.45,14.714c2.181,1.627,4.568,3.27,7.286,3.392
					c0.157-6.201,0.075-12.781-3.187-18.057c-1.589-2.57-3.836-4.654-6.055-6.705c-2.379-2.198-4.809-4.432-7.745-5.799
					c-2.687-1.251-5.683-1.715-8.646-1.776c-8.04-0.165-16.13,2.659-22.232,7.897c-3.375,2.897-6.118,6.525-8.022,10.543
					c-1.197,2.525-4.483,9.809-2.687,12.517c3.24,4.883,19.434-4.788,22.751-6.989C330.596,195.609,341.322,187.123,340.694,186.526
					z"/>
				<path style="fill:#ED7966;" d="M368.633,193.347c-2.846-9.616-10.604-17.576-20.142-20.639
					c-2.091-0.671-4.196-1.083-6.292-1.262c2.498-1.201,4.966-2.67,6.753-4.786c1.63-1.93,3.534-5.68,0.818-7.601
					c-2.668-1.886-5.981,0.912-7.66,2.86c-1.348,1.564-2.39,3.333-3.251,5.194c-0.671-2.334-1.597-4.645-2.944-6.518
					c-1.802-2.506-5.277-3.043-6.978-0.071c-1.658,2.896,0.339,6.572,2.372,8.717c0.975,1.029,2.102,1.917,3.337,2.568
					c-5.539,1.005-10.792,3.59-15.272,7.388c-4.734,4.013-8.426,9.107-11.508,14.456c-0.62,1.075,1.036,2.041,1.662,0.972
					c4.998-8.536,11.908-16.629,21.592-19.825c9.395-3.101,19.926-0.476,27.081,6.268c3.799,3.581,6.464,8.008,8.273,12.874
					C366.966,195.271,369.05,194.753,368.633,193.347z M342.779,165.164c0.653-0.995,1.413-1.914,2.289-2.721
					c0.669-0.616,2.177-1.949,3.176-1.405c1.895,1.032-1.76,4.771-2.597,5.469c-1.544,1.287-3.352,2.213-5.138,3.13
					C341.136,168.084,341.856,166.57,342.779,165.164z M330.721,162.367c0.297-1.203,1.411-1.953,2.492-1.19
					c0.914,0.645,1.42,1.988,1.857,2.967c1.038,2.323,1.751,4.777,2.231,7.272c-1.303-0.681-2.548-1.493-3.576-2.508
					C332.215,167.417,330.161,164.638,330.721,162.367z"/>
			</g>
			<g>
				<path style="fill:#FFBD5C;" d="M269.813,282.632c-6.248,3.599-12.492,7.206-18.745,10.776
					c-1.492,0.801-14.414,6.593-14.337,7.689c0.641,9.158,2.695,18.202,6.054,26.663c2.5-0.972,5.026-1.87,7.521-2.855
					c20.405-8.057,38.54-21.806,59.145-29.267c0.958-8.312,1.917-16.624,2.875-24.936c0.272-2.36,0.629-4.642,1.899-6.655
					c0.883-1.4,3.257-3.332,0.192-3.544c-0.581-0.04-1.303,0.14-2.08,0.438c-3.401,1.302-6.863,2.537-10.231,3.87
					c-8.13,3.218-15.745,8.327-23.324,12.668C275.79,279.191,272.801,280.91,269.813,282.632z"/>
				<g>
					<path style="fill:#FFBD5C;" d="M394.07,340.913c-0.65,3.535-1.533,7.161-3.724,10.013c-2.599,3.384-6.691,5.24-10.713,6.669
						c-25.395,9.026-53.553,5.949-79.634-0.847c-6.579-1.716-13.174-3.69-19.056-7.102c-0.937-0.543-1.898-1.17-2.379-2.14
						c-0.436-0.872-0.413-1.893-0.377-2.869c0.824-20.423,5.693-40.676,14.246-59.24c3.223-6.995,7.046-13.864,12.575-19.227
						c2.332-2.261,4.781-3.932,7.338-5.195c6.528-3.218,13.754-3.78,21.514-4.753c12.041-1.508,24.495,0.281,35.591,5.203
						c1.991,0.883,3.952,1.873,5.797,3.032c2.107,1.316,4.064,2.852,5.741,4.686c2.877,3.147,4.807,7.037,6.463,10.969
						C395.476,299.165,397.805,320.578,394.07,340.913z"/>
					<path style="fill:#FF9988;" d="M375.247,264.457c-5.594,2.678-11.369,4.962-17.371,6.489
						c-8.629,2.197-17.787,2.785-26.447,0.706c-5.468-1.311-10.711-3.724-15.152-7.189c-1.344-1.046-2.728-2.208-3.932-3.488
						c6.528-3.218,13.754-3.78,21.514-4.753c12.041-1.508,24.495,0.281,35.591,5.203
						C371.442,262.308,373.402,263.298,375.247,264.457z"/>
				</g>
				<path style="fill:#F29E3B;" d="M307.512,291.628c-2.977,2.106-6.251,3.911-9.424,5.708c-3.279,1.858-6.591,3.652-9.982,5.298
					c-6.723,3.263-13.644,6.01-20.71,8.43c-2.394,0.82-1.366,4.642,1.051,3.814c7.182-2.459,14.163-5.618,20.792-9.312
					c3.286-1.831,6.528-3.766,9.642-5.877c3.215-2.18,6.184-4.615,9.282-6.945C308.815,292.254,308.2,291.142,307.512,291.628z"/>
			</g>
		</g>
		<g>
			<path style="fill:#ED7966;" d="M265.012,387.746c-2.501,3.843-6.495,6.408-9.867,9.518c-5.255,4.843-9.152,11.17-15.055,15.2
				c-5.903,4.03-15.198,4.716-19.254-1.167c-3.387-4.911-1.47-11.59,0.781-17.112c1.07-2.628,4.076-6.032,7.567-9.018
				c3.758-3.217,8.086-5.952,11.173-6.706c0.112-0.029,0.221-0.053,0.327-0.075c-0.07-0.002-0.143-0.005-0.214-0.007
				c-10.418-0.374-28.025-0.209-38.314-1.072c-10.265-0.859-20.574,0.131-30.597,2.528c-9.343,2.237-18.437,5.694-27.011,10.018
				c-10.663,5.376-20.872,12.163-32.542,14.683c-3.846,0.83-7.96,1.157-11.634-0.25c-3.673-1.407-6.757-4.918-6.638-8.851
				c0.141-4.532,4.282-7.982,8.545-9.537c4.26-1.553,8.911-1.856,13.114-3.559c8.999-3.644,14.778-13.118,22.396-18.791
				c1.449-1.082,2.967-2.026,4.585-2.763c1.378-0.631,2.831-1.114,4.382-1.405c-0.837,0.039-1.684,0.07-2.535,0.095
				c-7.524,0.233-15.508,0.024-22.918,0.369c-4.544,0.209-9.181,0.41-13.555-0.83c-4.081-1.155-7.788-3.528-11.966-4.258
				c-3.676-0.641-7.334,0.034-10.894,1.254c-2.642,0.905-5.226,2.113-7.725,3.305c-3.795,1.812-7.606,3.634-11.054,6.041
				c-2.581,1.803-5.483,4.049-8.526,3.236c-2.036-0.541-3.467-2.341-4.559-4.141c-1.664-2.751-2.904-6.187-1.611-9.13
				c1.55-3.518,5.859-4.683,9.6-5.575c13.953-3.329,27.333-8.659,40.653-13.99c8.819-3.528,18.507-12.485,25.907-18.439
				c9.646-7.759,15.894-14.082,27.525-18.323c7.349-2.681,15.445-1.926,23.226-1.138c3.697,0.374,7.395,0.747,11.095,1.123
				c-0.677-0.825-0.796-1.846-1.47-2.671c-1.247-1.524-2.516-3.069-4.127-4.205c-3.322-2.336-8.091-2.984-10.059-6.536
				c-0.512-0.922-0.771-1.963-0.992-2.994c-1.344-6.289-1.39-13.004,0.949-18.995c0.335-0.859,0.74-1.73,1.441-2.327
				c0.706-0.602,1.635-0.861,2.531-1.104c4.632-1.254,8.344-2.88,12.975-4.134c2.103-6.347,5.085-13.572,11.519-15.389
				c3.55-1.002,7.315-0.044,10.998,0.163c3.744,0.209,7.529-0.371,11.233,0.199c8.319,1.286,14.601,7.987,20.099,14.366
				c3.596,4.171,7.23,8.506,9.018,13.715c2.062,6.005,1.468,12.539,1.361,18.883c-0.441,26.441,7.977,52.119,12.24,78.218
				C268.331,373.473,269.049,381.54,265.012,387.746z"/>
			<g>
				<g>
					<path style="fill:#1E2144;" d="M185.132,261.853c-1.788-1.064-3.898-1.685-5.951-1.938c-1.406-0.173-3.353-0.374-4.599,0.461
						c-0.739,0.218-1.053,0.986-1.164,1.862c-0.203,0.929-0.114,1.955,0.097,2.971c0.122,1.052,0.358,2.504,1.016,3.462
						c0.028,0.058,0.065,0.105,0.107,0.142c0.228,0.294,0.5,0.534,0.831,0.683c0.856,0.385,1.973,0.19,2.874,0.086
						c1.115-0.128,2.239-0.308,3.309-0.652c1.657-0.534,4.045-1.415,5.052-2.924C187.784,264.387,186.551,262.698,185.132,261.853z"
						/>
					<path style="fill:#1E2144;" d="M202.364,286.633c-7.088-0.34-14.319-1.149-20.486-4.971c-2.947-1.826-5.399-4.379-5.567-8.017
						c-0.088-1.91,0.29-3.805,0.617-5.677c0.234-1.341,0.857-3.364,0.194-4.61c-0.083-0.155-0.346-0.207-0.464-0.06
						c-0.537,0.669-0.591,1.539-0.786,2.359c-0.25,1.053-0.522,2.099-0.749,3.158c-0.397,1.86-0.709,3.746-0.502,5.651
						c0.389,3.577,2.686,6.264,5.563,8.237c6.36,4.361,14.604,5.738,22.181,5.658C203.481,288.349,203.472,286.686,202.364,286.633z
						"/>
					<path style="fill:#1E2144;" d="M176.375,277.912c-0.872,0.89-1.802,1.484-3.082,1.507c-0.89,0.017-1.719-0.432-2.59-0.296
						c-0.168,0.026-0.266,0.241-0.222,0.392c0.377,1.286,2.232,1.609,3.383,1.503c1.527-0.14,2.863-0.91,3.75-2.151
						C178.14,278.13,176.99,277.284,176.375,277.912z"/>
				</g>
				<path style="fill:#1E2144;" d="M208.599,255.301c-0.235-1.926-1.125-3.735-2.859-4.188c-1.341-0.35-3.97-0.104-4.512,1.423
					c-0.039,0.11,0.077,0.194,0.175,0.175c0.875-0.175,1.622-0.529,2.497-0.619c-0.654,0.514-1.168,1.29-1.494,1.998
					c-0.862,1.874-0.672,4.355,0.402,6.115c1.323,2.167,4.127,1.303,5.178-0.659C208.552,258.491,208.789,256.858,208.599,255.301z"
					/>
				<path style="fill:#DB5B52;" d="M225.479,274.91c0.108,7.182-1.69,14.384-5.163,20.672c-3.638,6.587-9.04,12.138-12.155,18.987
					c-3.116,6.85-3.213,16.069,2.658,20.776c0.558,0.447,1.171,0.857,1.56,1.457c1.041,1.605,0.087,3.683-0.509,5.501
					c-1.722,5.251,0.177,11.542,4.646,14.791c4.47,3.249,11.196,3.044,15.323-0.631c2.339-2.083,3.807-5.055,6.328-6.913
					c2.405-1.772,5.518-2.342,7.984-4.029c4.496-3.076,5.858-9.116,5.828-14.564c-0.03-5.448-1.071-10.978,0.132-16.291
					c1.386-6.123,5.702-12.061,3.976-18.097c-0.537-1.877-1.632-3.552-2.224-5.412c-1.607-5.048,0.681-10.417,1.164-15.693
					c0.712-7.775-2.559-15.371-6.568-22.071c-3.453-5.771-11.719-12.962-18.496-7.474
					C221.562,252.723,225.343,265.876,225.479,274.91z"/>
				<path style="fill:#1E2144;" d="M224.223,400.117c-2.099,0.578-3.339,3.774-3.918,5.633c-0.726,2.328-1.119,5.155,0.161,7.341
					c0.539,0.921,1.801,0.446,1.886-0.511c0.186-2.081-0.201-4.121,0.268-6.192c0.229-1.009,0.568-1.984,1.036-2.907
					c0.422-0.832,1.123-1.749,1.252-2.679C224.964,400.398,224.673,399.993,224.223,400.117z"/>
				<path style="fill:#1E2144;" d="M233.601,403.849c-2.338,0.261-3.87,3.32-4.443,5.328c-0.733,2.568-0.551,5.393,1.128,7.528
					c0.917,1.166,2.564-0.131,2.3-1.339c-0.406-1.858-0.864-3.655-0.521-5.565c0.161-0.899,0.427-1.765,0.851-2.576
					c0.432-0.827,1.116-1.597,1.343-2.512C234.355,404.324,234.059,403.798,233.601,403.849z"/>
				<path style="fill:#1E2144;" d="M102.574,390.645c-2.705-0.483-5.188,0.192-7.253,2.043c-1.84,1.649-3.516,4.926-2.567,7.392
					c0.422,1.097,2.026,1.252,2.391,0c0.567-1.951,0.524-3.737,1.914-5.389c1.272-1.512,3.371-2.488,5.328-2.66
					C103.117,391.965,103.415,390.795,102.574,390.645z"/>
				<path style="fill:#1E2144;" d="M106.295,395.745c-2.178-0.194-4.229,2.179-5.035,3.956c-1.136,2.506-1.058,5.271,0.706,7.425
					c0.939,1.147,2.675-0.104,2.357-1.372c-0.423-1.688-0.845-3.511-0.14-5.183c0.634-1.504,1.963-2.241,2.878-3.492
					C107.496,396.485,106.891,395.798,106.295,395.745z"/>
				<path style="fill:#1E2144;" d="M58.969,355.586c-2.533,2.003-5.56,2.885-8.74,3.102c-1.651,0.112-1.625,2.395,0,2.547
					c3.875,0.363,7.607-1.719,9.794-4.836C60.497,355.722,59.515,355.154,58.969,355.586z"/>
				<path style="fill:#1E2144;" d="M61.986,362.434c-0.147-0.392-0.556-0.724-1.002-0.569c-0.768,0.266-1.202,0.932-1.807,1.444
					c-0.563,0.476-1.16,0.93-1.829,1.246c-1.417,0.669-3.037,0.745-4.561,0.976c-1.153,0.175-1.189,1.847-0.31,2.37
					c1.996,1.186,4.475,0.693,6.359-0.476C60.244,366.552,62.706,364.356,61.986,362.434z"/>
				<path style="fill:#FF9988;" d="M146.506,354.079c-1.329,0.391-2.707,0.606-4.021,1.05c-1.264,0.428-2.487,0.949-3.7,1.504
					c-1.283,0.587-0.146,2.643,1.125,1.925c2.196-1.241,4.485-2.671,6.85-3.558C147.325,354.788,147.107,353.902,146.506,354.079z"
					/>
				<path style="fill:#E2675A;" d="M137.79,363.547c1.449-1.082,2.967-2.026,4.585-2.763
					C140.927,361.849,139.476,362.955,137.79,363.547z"/>
				<path style="fill:#E2675A;" d="M168.11,348.182c-8.249,3.142-16.602,6.342-23.888,11.292
					c-7.524,0.233-15.508,0.024-22.918,0.369c-4.544,0.209-9.181,0.41-13.555-0.83c-4.081-1.155-7.788-3.528-11.966-4.258
					c-3.676-0.641-7.334,0.034-10.894,1.254c4.68-2.538,12.221-4.646,14.834-4.94c6.223-0.699,12.609-0.536,18.606-2.337
					c4.52-1.356,8.698-3.794,13.32-4.728c5.061-1.024,10.287-0.177,15.38,0.669C154.055,345.843,161.084,347.013,168.11,348.182z"/>
				<path style="fill:#FF9988;" d="M173.756,340.388c-4.887,7.22-13.404,11.004-21.184,14.196c-4.331,1.777-8.7,3.602-12.63,6.175
					c-3.896,2.551-7.412,5.732-10.545,9.167c-1.711,1.876-3.339,3.822-5.004,5.737c-1.625,1.868-3.28,3.804-5.748,4.513
					c-1.188,0.341-0.658,1.96,0.496,1.798c4.467-0.624,7.397-4.744,10.268-7.806c3.3-3.52,6.695-7.06,10.634-9.875
					c7.877-5.629,17.647-7.615,25.676-12.961c3.985-2.653,7.183-6.068,8.974-10.55C174.918,340.215,174.062,339.936,173.756,340.388
					z"/>
				<path style="fill:#E2675A;" d="M249.16,372.087c-2.715,1.965-5.43,3.933-8.145,5.898c-0.182,0.131-0.361,0.262-0.544,0.393
					c-10.418-0.374-28.025-0.209-38.314-1.072c-10.265-0.859-20.574,0.131-30.597,2.528c1.114-0.677,2.193-1.409,3.237-2.193
					c6.107-4.59,11.488-11.151,19.067-12.126c7.618-0.98,14.698,4.117,22.338,4.906c4.6,0.478,9.198-0.628,13.807-1.009
					C236.485,368.878,243.077,369.799,249.16,372.087z"/>
				<path style="fill:#FF9988;" d="M252.81,369.742c-0.935,0.103-1.674,0.623-2.458,1.108c-0.837,0.518-1.708,0.963-2.574,1.428
					c-1.743,0.938-3.496,1.85-5.249,2.767c-3.907,2.044-7.712,4.358-11.385,6.795c-6.057,4.02-13.825,10.103-12.5,18.346
					c0.128,0.794,1.393,0.746,1.557,0c0.791-3.599,2.433-6.945,4.947-9.656c2.674-2.884,6.006-5.024,9.279-7.157
					c3.428-2.235,6.973-4.251,10.499-6.322c1.609-0.945,3.265-1.858,4.742-3.003c1.256-0.974,3.168-2.165,3.503-3.832
					C253.214,370.003,253.07,369.713,252.81,369.742z"/>
				<path style="fill:#E2675A;" d="M231.977,276.542c-0.335-3.621-1.067-7.19-1.433-10.806c-0.382-3.777-0.192-7.283,0.633-10.98
					c0.112-0.504-0.619-0.875-0.873-0.368c-3.166,6.326-1.007,14.207-0.236,20.834c0.854,7.347-0.198,14.571-2.862,21.461
					c-0.259,0.67,0.847,1.136,1.164,0.491C231.513,290.78,232.631,283.617,231.977,276.542z"/>
				<path style="fill:#E2675A;" d="M236.369,286.743c-0.049-1.2-0.371-2.279-0.5-3.455c-0.052-0.475-0.792-0.493-0.758,0
					c0.073,1.05-0.131,2.191-0.174,3.251c-0.038,0.951-0.113,1.901-0.226,2.846c-0.255,2.139-0.665,4.273-1.251,6.346
					c-1.139,4.034-2.993,7.81-5.165,11.383c-0.654,1.076,0.916,1.89,1.637,0.957c2.682-3.473,4.448-7.548,5.479-11.802
					c0.499-2.057,0.841-4.16,0.944-6.275C236.408,288.911,236.413,287.827,236.369,286.743z"/>
				<path style="fill:#E2675A;" d="M223.454,302.697c0.312-0.47-0.373-0.96-0.762-0.588c-4.273,4.083-6.624,9.459-8.53,14.963
					c-1.822,5.262-2.767,11.725,1.25,16.249c0.683,0.769,1.875-0.215,1.393-1.075c-2.73-4.876-1.636-10.349,0.024-15.383
					C218.454,311.935,220.576,307.03,223.454,302.697z"/>
				<path style="fill:#E2675A;" d="M221.863,320.112c0.579-2.37,1.338-4.995,2.635-7.071c0.275-0.441-0.414-0.838-0.694-0.406
					c-1.353,2.091-2.607,4.039-3.428,6.415c-0.833,2.412-1.329,4.908-1.588,7.444c-0.568,5.563,0.071,11.299,1.34,16.723
					c0.229,0.98,1.874,0.793,1.787-0.242c-0.442-5.287-1.236-10.533-1.007-15.853C221.01,324.764,221.302,322.407,221.863,320.112z"
					/>
				<path style="fill:#E2675A;" d="M225.166,337.772c-0.081-0.29-0.573-0.331-0.629,0c-0.441,2.621-0.491,5.256-0.771,7.899
					c-0.289,2.736-0.719,5.454-1.063,8.184c-0.127,1.007,1.435,1.132,1.713,0.232c0.824-2.668,1.211-5.399,1.359-8.186
					C225.923,343.141,225.915,340.439,225.166,337.772z"/>
				<path style="fill:#E2675A;" d="M250.921,269.709c-0.438-2.2-1.108-4.356-2.008-6.411c-0.69-1.577-1.644-4.27-3.393-4.903
					c-0.114-0.041-0.214,0.064-0.221,0.168c-0.061,0.927,0.444,1.702,0.812,2.527c0.481,1.08,0.924,2.17,1.286,3.297
					c0.643,2.001,1.099,4.041,1.428,6.115c0.774,4.868,0.656,9.812,0.468,14.721c-0.055,1.433,2.115,1.409,2.214,0
					C251.871,280.067,251.937,274.804,250.921,269.709z"/>
				<path style="fill:#E2675A;" d="M245.909,286.433c-0.031-0.451-0.659-0.446-0.698,0c-0.279,3.197-0.727,6.462-1.247,9.632
					c-0.51,3.105-1.113,6.2-1.873,9.254c-0.323,1.297,1.671,1.849,2.003,0.552c0.804-3.144,1.415-6.322,1.737-9.553
					c0.159-1.601,0.258-3.209,0.314-4.817C246.205,289.777,246.027,288.143,245.909,286.433z"/>
				<path style="fill:#E2675A;" d="M244.717,318.764c-0.077-2.86-0.172-6.038-1.386-8.676c-0.162-0.352-0.614-0.124-0.65,0.176
					c-0.326,2.722,0.088,5.53,0.022,8.27c-0.069,2.89-0.353,5.798-0.855,8.645c-0.883,5.003-2.593,9.834-5.44,14.068
					c-0.679,1.009,0.91,2.264,1.703,1.314c3.553-4.257,5.213-9.571,6.041-14.985C244.6,324.652,244.797,321.721,244.717,318.764z"/>
				<path style="fill:#E2675A;" d="M235.171,321.07c-1.45,5.285-2.272,10.754-3.595,16.077c-0.275,1.107,1.481,1.57,1.696,0.468
					c1.051-5.389,2.264-10.971,2.406-16.476C235.685,320.846,235.248,320.79,235.171,321.07z"/>
				<path style="fill:#FF9988;" d="M192.187,267.836c-0.094-0.223-0.226-0.395-0.418-0.543c-0.229-0.177-0.525-0.304-0.822-0.291
					c-0.473,0.021-0.927,0.255-1.171,0.672c-0.31,0.53-0.204,1.206,0.212,1.643c0.007,0.007,0.013,0.014,0.02,0.021
					c0.485,0.511,1.393,0.511,1.879,0c0.007-0.007,0.013-0.014,0.02-0.021c0.161-0.169,0.277-0.377,0.349-0.598
					C192.348,268.432,192.301,268.105,192.187,267.836z"/>
				<path style="fill:#FF9988;" d="M187.683,271.208c-0.054-0.193-0.152-0.362-0.294-0.504c-0.018-0.022-0.037-0.044-0.055-0.066
					c-0.083-0.065-0.167-0.129-0.25-0.194c-0.099-0.042-0.197-0.083-0.296-0.125c-0.261-0.085-0.56-0.041-0.805,0.062
					c-0.434,0.183-0.782,0.64-0.76,1.13c0.019,0.431,0.232,0.846,0.613,1.068c0.24,0.141,0.516,0.183,0.789,0.147
					c0.249-0.034,0.543-0.139,0.71-0.34c0.018-0.022,0.037-0.044,0.055-0.066c0.189-0.229,0.349-0.496,0.335-0.808
					C187.71,271.411,187.697,271.31,187.683,271.208z"/>
				<path style="fill:#FF9988;" d="M190.796,272.192c-0.485,0-0.95,0.427-0.928,0.927c0.023,0.503,0.408,0.928,0.928,0.928
					c0.485,0,0.95-0.427,0.928-0.928C191.701,272.617,191.316,272.192,190.796,272.192z"/>
				<path style="fill:#FF9988;" d="M195.076,269.844c-0.01-0.005-0.021-0.011-0.031-0.016c-0.241-0.125-0.599-0.18-0.834,0
					c-0.009,0.007-0.019,0.014-0.028,0.021c-0.12,0.071-0.216,0.167-0.288,0.288c-0.073,0.125-0.109,0.26-0.11,0.405
					c0,0.145,0.037,0.28,0.11,0.405c0.071,0.121,0.167,0.216,0.288,0.288c0.009,0.007,0.019,0.014,0.028,0.021
					c0.235,0.18,0.594,0.125,0.834,0c0.01-0.005,0.021-0.011,0.031-0.016C195.602,270.966,195.602,270.117,195.076,269.844z"/>
				<path style="fill:#FF9988;" d="M197.532,274.268c-0.042-0.124-0.091-0.227-0.152-0.323c-0.151-0.327-0.473-0.59-0.851-0.573
					c-0.385,0.017-0.696,0.233-0.852,0.573c-0.061,0.096-0.111,0.198-0.152,0.322c-0.216,0.649,0.356,1.317,1.003,1.317
					C197.176,275.585,197.747,274.916,197.532,274.268z"/>
				<path style="fill:#FF9988;" d="M187.341,304.405c-0.091-0.147-0.255-0.172-0.405-0.106c-0.854,0.376-1.266,1.743-1.715,2.514
					c-0.604,1.036-1.232,2.048-2.008,2.967c-1.563,1.852-3.513,3.285-5.546,4.58c-0.883,0.562-0.317,2.232,0.754,1.788
					c2.554-1.061,4.593-2.809,6.276-4.993c0.816-1.059,1.558-2.197,2.09-3.427C187.167,306.852,187.905,305.315,187.341,304.405z"/>
				<path style="fill:#FF9988;" d="M183.78,314.623c-0.144-0.169-0.414-0.135-0.563,0c-1.28,1.164-2.552,2.26-4.1,3.075
					c-1.571,0.828-3.251,1.421-4.821,2.248c-1.262,0.664-0.392,2.67,0.964,2.286c2.221-0.629,4.356-1.679,6.186-3.088
					C182.529,318.312,185.068,316.138,183.78,314.623z"/>
				<path style="fill:#FF9988;" d="M179.349,323.16c-1.614,0.725-3.378,1.031-5.026,1.675c-1.31,0.513-2.463,1.234-3.555,2.12
					c-2.17,1.76-3.953,4.249-4.52,7.011c-0.273,1.33,1.728,2.403,2.349,0.99c1.033-2.349,2.209-4.556,4.106-6.327
					c2.095-1.955,4.803-3.009,7.207-4.506C180.533,323.736,179.992,322.871,179.349,323.16z"/>
				<path style="fill:#FF9988;" d="M176.377,330.08c-2.189,0.276-3.923,2.105-5.135,3.819c-1.376,1.947-1.994,4.353-1.844,6.719
					c0.121,1.908,2.89,1.927,2.98,0c0.084-1.813,0.566-3.627,1.371-5.254c0.82-1.656,2.171-2.81,3.188-4.309
					C177.193,330.678,176.86,330.019,176.377,330.08z"/>
				<path style="fill:#FF9988;" d="M183.192,351.867c-1.617-2.249-3.567-4.402-4.737-6.931c-1.323-2.86-1.235-5.54-0.008-8.408
					c0.413-0.966-0.913-1.824-1.453-0.85c-1.657,2.986-2.686,6.039-1.705,9.445c0.97,3.367,3.381,6.011,5.993,8.218
					C182.256,354.165,184.057,353.07,183.192,351.867z"/>
				<path style="fill:#FF9988;" d="M194.979,360.528c-2.374-2.123-4.776-4.348-6.534-7.025c-1.745-2.658-3.357-5.908-3.149-9.165
					c0.06-0.936-1.326-0.893-1.433,0c-0.434,3.625,0.007,7.066,1.837,10.276c1.798,3.154,4.33,5.778,7.075,8.118
					C194.287,364.02,196.486,361.876,194.979,360.528z"/>
				<path style="fill:#FF9988;" d="M200.107,363.415c-0.236-0.735-0.501-1.502-0.904-2.166c-0.476-0.782-1.16-1.377-1.697-2.109
					c-0.346-0.472-1.034-0.077-0.786,0.459c0.323,0.697,0.388,1.503,0.546,2.246c0.157,0.74,0.391,1.461,0.543,2.203
					c0.296,1.435,0.386,2.926,0.344,4.389c-0.05,1.725,2.667,1.73,2.684,0C200.854,366.719,200.633,365.054,200.107,363.415z"/>
				<path style="fill:#FF9988;" d="M205.219,371.079c-1.288-2.994-1.977-6.175-1.963-9.434c0.004-0.84-1.248-0.828-1.296,0
					c-0.202,3.493,0.107,6.987,1.076,10.354C203.502,373.619,205.919,372.708,205.219,371.079z"/>
				<path style="fill:#FF9988;" d="M215.198,364.475c-0.882,1.441-1.87,2.794-3.039,4.018c-1.187,1.243-2.648,2.185-3.721,3.532
					c-0.385,0.483-0.044,1.257,0.631,1.083c1.945-0.499,3.695-1.727,5.223-3.001c1.59-1.327,2.652-3.026,2.899-5.092
					C217.323,363.902,215.706,363.645,215.198,364.475z"/>
				<path style="fill:#FF9988;" d="M222.766,365.645c-1.211,0.85-2.227,1.91-3.409,2.797c-1.189,0.892-2.408,1.653-3.761,2.275
					c-0.501,0.23-0.142,1.009,0.368,0.873c2.944-0.782,6.247-2.131,8.016-4.731C224.468,366.14,223.487,365.139,222.766,365.645z"/>
				<path style="fill:#FF9988;" d="M242.492,349.491c-1.273,1.316-2.099,3.092-2.887,4.727c-0.834,1.731-1.527,3.454-2.066,5.298
					c-0.429,1.467,1.758,2.431,2.494,1.052c0.873-1.637,1.614-3.292,2.33-5.003c0.682-1.628,1.536-3.349,1.792-5.105
					C244.288,349.551,243.252,348.706,242.492,349.491z"/>
				<path style="fill:#FF9988;" d="M237.345,354.389c-0.731,0.216-1.18,0.875-1.617,1.459c-0.634,0.847-1.245,1.699-1.8,2.6
					c-1.112,1.805-2.014,3.588-2.727,5.587c-0.535,1.499,1.733,2.367,2.515,1.06c1.807-3.018,3.597-6.363,4.593-9.742
					C238.476,354.785,237.914,354.22,237.345,354.389z"/>
				<path style="fill:#FF9988;" d="M127.177,339.389c-1.98,3.886-6.041,5.816-9.585,8.021c-1.231,0.766-0.157,2.543,1.125,1.925
					c4.244-2.047,8.142-4.81,10.018-9.289C129.108,339.157,127.612,338.534,127.177,339.389z"/>
				<path style="fill:#FF9988;" d="M133.739,338.9c-0.587,1.238-2.093,2.508-3.083,3.426c-1.106,1.024-2.399,1.868-3.766,2.499
					c-1.477,0.682-0.189,2.777,1.263,2.16c1.676-0.711,3.133-1.709,4.348-3.069c0.548-0.613,1.04-1.265,1.401-2.007
					c0.409-0.838,0.516-1.741,0.855-2.58C134.993,338.748,134.009,338.331,133.739,338.9z"/>
				<path style="fill:#FF9988;" d="M142.237,336.018c-1.598,2.078-3.109,3.999-3.376,6.713c-0.223,2.274,0.551,4.867,2.692,5.96
					c0.76,0.388,2.047-0.285,1.637-1.259c-0.667-1.585-1.328-3.139-1.35-4.884c-0.025-1.96,0.689-4.11,1.831-5.692
					C144.304,335.978,142.873,335.19,142.237,336.018z"/>
				<path style="fill:#FF9988;" d="M148.178,347.15c-0.4-0.834-0.827-1.746-1.03-2.651c-0.218-0.973-0.021-1.805-0.03-2.765
					c-0.001-0.141-0.165-0.249-0.291-0.167c-0.897,0.586-1.37,1.977-1.455,3.001c-0.12,1.441,0.289,2.72,1.395,3.671
					C147.551,348.911,148.625,348.082,148.178,347.15z"/>
				<path style="fill:#FF9988;" d="M157.534,343.758c-1.179,1.318-2.787,1.807-4.223,2.747c-0.651,0.426-0.48,1.709,0.436,1.611
					c2.209-0.237,3.586-2.083,4.395-4.004C158.285,343.773,157.764,343.5,157.534,343.758z"/>
				<path style="fill:#FF9988;" d="M247.41,393.332c-0.439-0.495-1.124-0.158-1.331,0.351c-0.403,0.993-0.217,2.227-0.472,3.284
					c-0.262,1.087-0.693,2.16-1.071,3.212c-0.355,0.988,1.008,1.654,1.692,0.985c1.114-1.089,1.655-2.353,1.867-3.893
					C248.272,395.988,248.313,394.348,247.41,393.332z"/>
				<path style="fill:#FF9988;" d="M251.564,391.012c-0.182-0.801-1.259-0.841-1.663-0.217c-0.832,1.285-1.006,3.326-1.101,4.818
					c-0.082,1.283,1.842,1.472,2.189,0.296C251.414,394.474,251.904,392.503,251.564,391.012z"/>
				<path style="fill:#FF9988;" d="M255.879,386.439c-1.042,2.019-1.922,3.733-0.865,5.956c0.451,0.948,1.69,0.216,1.559-0.657
					c-0.227-1.514-0.72-3.467,0.013-4.886C256.827,386.385,256.121,385.97,255.879,386.439z"/>
				<path style="fill:#FF9988;" d="M194.575,313.596c-4.895,4.519-7.147,12.124-6.529,18.647c0.163,1.724,2.665,1.785,2.729,0
					c0.112-3.08,0.519-6.164,1.423-9.117c0.911-2.975,2.309-5.731,3.716-8.496C196.352,313.77,195.302,312.925,194.575,313.596z"/>
				<path style="fill:#FF9988;" d="M200.111,346.939c-0.941-1.726-1.773-3.601-2.336-5.486c-0.576-1.929-0.785-3.938-1.016-5.931
					c-0.072-0.617-0.985-0.856-1.162-0.157c-1.08,4.268,0.117,9.132,2.608,12.688C199.011,349.202,200.801,348.204,200.111,346.939z
					"/>
			</g>
		</g>
		<g>
			<g>
				<path style="fill:#FFFFFF;" d="M207.67,414.88c-0.523,1.181-1.136,2.326-1.831,3.409c-1.679,2.641-3.82,4.93-6.233,6.587
					c-1.702,1.167-3.6,2.076-5.611,2.723c-1.01,0.326-2.05,0.585-3.105,0.776c-6.835,1.241-14.339-0.363-19.348-5.057
					c-0.698-0.652-1.344-1.364-1.935-2.135c-0.256-0.335-0.498-0.675-0.729-1.021c-3.963-5.988-3.859-13.563-1.111-20.164
					c0.29-0.695,0.608-1.378,0.953-2.048c2.543-4.925,6.576-9.105,11.445-11.357c1.021-0.475,2.079-0.863,3.164-1.156
					c1.305-0.352,2.655-0.565,4.036-0.622c5.833-0.239,11.431,2.216,15.593,6.194c0.619,0.594,1.207,1.218,1.758,1.873
					c1.581,1.876,2.869,4,3.772,6.275c0.068,0.169,0.132,0.34,0.194,0.512C210.457,404.493,209.824,410.02,207.67,414.88z"/>
				<path style="fill:#FFBD5C;" d="M207.67,414.88c-0.523,1.181-1.136,2.326-1.831,3.409c-3.361-0.487-6.773-1.122-10.142-1.96
					c-0.546,2.697-0.982,5.42-1.325,8.151c-0.132,1.038-0.262,2.079-0.377,3.119c-1.01,0.326-2.05,0.585-3.105,0.776
					c0.135-1.226,0.29-2.439,0.439-3.628c0.382-3.083,0.852-6.154,1.463-9.195c-4.334-1.249-8.548-2.866-12.421-4.978
					c-2.23,4.691-5.251,8.972-8.829,12.744c-0.698-0.652-1.344-1.364-1.935-2.135c-0.256-0.335-0.498-0.675-0.729-1.021
					c3.277-3.437,6.089-7.324,8.117-11.616c-3.513-2.323-6.652-5.136-9.228-8.548c0.29-0.695,0.608-1.378,0.953-2.048
					c2.827,2.953,6.036,5.51,9.507,7.667c1.336-3.589,2.157-7.383,2.374-11.208c0.113-2.011,0.039-4.017-0.172-6.019
					c-0.062-0.596-0.16-1.195-0.264-1.797c1.021-0.475,2.079-0.863,3.164-1.156c0.833,2.711,0.948,5.828,0.954,8.396
					c0.008,4.376-0.796,8.756-2.29,12.868c-0.107,0.292-0.222,0.582-0.332,0.872c1.083,0.565,2.183,1.103,3.302,1.598
					c2.785,1.229,5.651,2.216,8.573,3.024c0.211-0.88,0.433-1.758,0.675-2.633c1.271-4.59,3.038-9.068,5.316-13.256
					c1.01-1.859,2.149-3.611,3.432-5.296c0.619,0.594,1.207,1.218,1.758,1.873c-0.993,1.572-1.915,3.195-2.771,4.838
					c-2.045,3.94-3.561,8.114-4.759,12.381c-0.264,0.942-0.506,1.887-0.737,2.835C200.143,413.803,203.904,414.416,207.67,414.88z"
					/>
			</g>
			<path style="fill:#F9D1BB;" d="M206.735,402.252c-0.067-0.237-0.134-0.459-0.239-0.684c-0.163-0.35-0.604-0.557-0.972-0.557
				c-0.368,0-0.809,0.208-0.972,0.557c-0.105,0.225-0.173,0.448-0.239,0.684c-0.221,0.788,0.402,1.59,1.211,1.59
				C206.331,403.842,206.956,403.04,206.735,402.252z"/>
			<path style="fill:#F9D1BB;" d="M204.047,406.465c-0.047-0.347-0.186-0.593-0.413-0.863c-0.017-0.02-0.034-0.041-0.051-0.061
				c-0.214-0.255-0.686-0.434-1.012-0.419c-0.36,0.016-0.77,0.132-1.011,0.419c-0.017,0.02-0.034,0.041-0.051,0.061
				c-0.171,0.203-0.304,0.409-0.387,0.663c-0.103,0.317-0.05,0.68,0.076,0.978c0.104,0.247,0.251,0.437,0.463,0.601
				c0.253,0.196,0.581,0.337,0.911,0.323c0.524-0.023,1.028-0.282,1.298-0.744C204.039,407.131,204.091,406.796,204.047,406.465z"/>
			<path style="fill:#F9D1BB;" d="M207.52,407.755l-0.242-0.679c-0.175-0.491-0.605-0.816-1.14-0.744
				c-0.52,0.07-0.88,0.498-0.901,1.02c-0.01,0.238-0.019,0.477-0.029,0.716c-0.028,0.712,0.663,1.246,1.333,1.156
				C207.194,409.136,207.762,408.433,207.52,407.755z"/>
			<path style="fill:#F9D1BB;" d="M204.821,410.291c-1.667,0-1.67,2.591,0,2.591C206.488,412.882,206.49,410.291,204.821,410.291z"
				/>
			<path style="fill:#F9D1BB;" d="M177.519,421.152c-0.253-0.148-0.542-0.193-0.829-0.154c-0.117,0-0.227,0.03-0.328,0.089
				c-0.161,0.052-0.301,0.142-0.418,0.269c-0.091,0.073-0.184,0.206-0.244,0.305c-0.221,0.367-0.221,0.861,0,1.228
				c0.06,0.099,0.153,0.232,0.244,0.305c0.18,0.145,0.351,0.262,0.574,0.334c0.274,0.089,0.588,0.043,0.846-0.065
				c0.456-0.192,0.822-0.672,0.799-1.188C178.143,421.821,177.919,421.386,177.519,421.152z"/>
			<path style="fill:#F9D1BB;" d="M180.147,418.816c-0.064-0.075-0.125-0.159-0.201-0.222c-0.148-0.147-0.321-0.248-0.522-0.304
				c-0.21-0.056-0.419-0.056-0.629,0c-0.385,0.106-0.734,0.429-0.826,0.826c-0.049,0.208-0.056,0.418-0.067,0.63
				c-0.023,0.456,0.267,0.911,0.651,1.135c0.365,0.214,0.787,0.228,1.17,0.066c0.373-0.157,0.652-0.455,0.761-0.852
				C180.618,419.615,180.459,419.181,180.147,418.816z"/>
			<path style="fill:#F9D1BB;" d="M180.632,423.141c-0.355,0-0.728,0.154-0.979,0.405c-0.24,0.24-0.421,0.634-0.406,0.979
				c0.034,0.75,0.608,1.384,1.384,1.384c0.355,0,0.728-0.154,0.979-0.405c0.24-0.24,0.421-0.634,0.405-0.979
				C181.983,423.775,181.408,423.141,180.632,423.141z"/>
			<path style="fill:#F9D1BB;" d="M184.288,424.412c-1.413,0-1.415,2.195,0,2.195C185.701,426.607,185.703,424.412,184.288,424.412z
				"/>
		</g>
		<g>
			<g>
				<path style="fill:#FFE2CF;" d="M292.206,315.343c9.613-0.043,18.71-3.899,27.924-6.143c16.601-4.043,37.282-1.614,49.522,11.249
					c3.094,3.252,6.276,7.189,7.987,11.474c3.043,7.62,1.945,16.438-0.539,24.284c-1.042,3.292-2.34,6.542-4.341,9.283
					c-3.076,4.212-7.659,6.965-12.469,8.441c-4.81,1.477-9.868,1.766-14.873,1.755c-13.578-0.03-27.151-2.219-40.13-6.473
					c-4.499-1.475-9.027-3.254-12.657-6.45c-6.878-6.055-9.398-16.297-8.96-25.799c0.466-10.106,3.882-20.034,9.655-28.062"/>
				<path style="fill:#FFD3BB;" d="M300.645,336.099c2.349,4.039,6.14,6.998,9.838,9.853c7.412,5.722,15.046,11.56,24.014,14.252
					c-12.584-2.444-25.168-4.888-37.752-7.332c-4.018-0.78-8.5-1.869-10.631-5.364c4.405-2.724,6.987-7.744,7.934-12.836
					c0.566-3.042-1.056-12.244,1.099-13.999C298.363,324.112,298.124,331.765,300.645,336.099z"/>
				<g>
					<path style="fill:#FFE2CF;" d="M298.814,335.769c-1.26,7.122-6.823,11.372-13.315,13.658
						c-7.819,2.754-16.437,4.61-24.133,0.436c-9.819-5.322-13.135-17.874-10.348-28.141c0.023-0.084,0.011-0.194-0.028-0.332
						c-0.413-1.496-4.028-6.205-3.578-13.765c0.008-0.18,0.02-0.363,0.037-0.546c3.521,0.405,7.982,1.314,10.764,3.513
						c8.348-3.457,17.742-4.337,26.582-2.486c2.155-3.119,6.373-6.213,11.684-6.612c0.07,0.402,0.115,0.827,0.141,1.26
						c0.121,2.146-0.25,4.436-0.25,4.436s-1.28,5.732-2.486,8.469c-0.003,0.006-0.003,0.014-0.003,0.022
						c0,0.391,2.309,3.631,2.52,4.081C298.628,324.53,299.739,330.554,298.814,335.769z"/>
					<path style="fill:#FF9988;" d="M296.369,307.19c0,0-1.28,5.732-2.486,8.469c-0.003,0.006-0.003,0.014-0.003,0.022
						c-2.652-1.17-4.956-3.145-6.483-5.614c1.451-1.578,3.04-3.029,4.739-4.337c1.398-1.074,2.903-2.166,4.483-2.976
						C296.741,304.9,296.369,307.19,296.369,307.19z"/>
					<path style="fill:#FF9988;" d="M255.555,315.518c0.003,0.208-0.107,0.402-0.214,0.579c-1.192,1.958-2.663,3.744-4.351,5.293
						c-0.413-1.496-4.028-6.205-3.578-13.765c1.285,0.329,2.99,1.997,3.769,2.664c1.581,1.356,2.979,2.925,4.135,4.658
						C255.431,315.121,255.55,315.31,255.555,315.518z"/>
					<path style="fill:#FFF1E9;" d="M267.929,328.979c-0.552,3.221-1.564,6.404-1.462,9.671c0.039,1.265,0.286,2.606,1.154,3.528
						c0.43,0.457,0.983,0.777,1.541,1.062c1.255,0.642,2.605,1.147,4.011,1.247c2.346,0.167,4.745-0.879,6.219-2.712
						c1.473-1.832,1.98-4.401,1.314-6.656c-0.742-2.509-2.765-4.454-3.678-6.906c-0.665-1.787-0.703-3.734-0.918-5.628
						c-0.313-2.753-1.017-5.46-2.085-8.016c-0.637-1.523-1.53-3.189-3.204-3.746c-1.186-0.394-2.387-0.162-2.818,1.09
						c-0.436,1.265-0.043,2.866,0.098,4.15c0.225,2.037,0.365,4.085,0.368,6.135C268.473,324.467,268.313,326.74,267.929,328.979z"
						/>
					<g>
						<g>
							<g>
								<path style="fill:#1E2144;" d="M274.883,328.598c0.305-0.001,0.674,0.048,0.796,0.328c0.087,0.2,0.001,0.43-0.09,0.629
									c-0.361,0.782-0.822,1.518-1.369,2.184c-0.137,0.167-0.283,0.332-0.469,0.44c-0.523,0.302-1.188,0.071-1.711-0.23
									c-0.381-0.219-0.742-0.473-1.076-0.759c-0.323-0.275-0.638-0.613-0.689-1.034
									C270.089,328.632,273.983,328.603,274.883,328.598z"/>
								<path style="fill:#1E2144;" d="M274.38,335.009c-0.28-1.644-0.399-3.489-1.076-5.022c-0.129-0.293-0.529-0.089-0.467,0.143
									c-0.134,1.729,0.355,3.568,0.623,5.268c0.277,1.755,0.382,3.681,0.981,5.357c0.164,0.457,0.753,0.217,0.76-0.193
									C275.231,338.737,274.687,336.806,274.38,335.009z"/>
							</g>
							<path style="fill:#1E2144;" d="M266.99,327.793c-3.152-1.383-7.282-1.288-9.799,1.332c-0.324,0.337,0.082,0.809,0.479,0.621
								c2.71-1.281,5.605-1.771,8.371-0.331C267.131,329.983,268.077,328.27,266.99,327.793z"/>
							<path style="fill:#1E2144;" d="M278.497,326.201c2.418-2.45,6.29-3.887,9.598-2.383c0.425,0.193,0.222,0.782-0.216,0.754
								c-2.991-0.19-5.863,0.425-7.901,2.786C279.175,328.287,277.663,327.045,278.497,326.201z"/>
						</g>
						<g>
							<path style="fill:#FF9988;" d="M269.498,334.192c-0.021-0.22-0.173-0.409-0.409-0.409c-0.238,0-0.388,0.188-0.409,0.409
								c-0.004,0.047-0.009,0.094-0.013,0.141c-0.021,0.22,0.209,0.431,0.422,0.422c0.211-0.01,0.444-0.187,0.422-0.422
								C269.507,334.286,269.503,334.239,269.498,334.192z"/>
							<path style="fill:#FF9988;" d="M270.965,333.834c-0.236,0-0.462,0.208-0.452,0.452c0.011,0.245,0.198,0.452,0.452,0.452
								c0.236,0,0.462-0.208,0.452-0.452C271.405,334.041,271.218,333.834,270.965,333.834z"/>
							<path style="fill:#FF9988;" d="M269.969,335.309c-0.286,0-0.56,0.252-0.547,0.547c0.013,0.296,0.24,0.547,0.547,0.547
								c0.286,0,0.56-0.252,0.547-0.547C270.503,335.56,270.275,335.309,269.969,335.309z"/>
							<path style="fill:#FF9988;" d="M276.684,332.273c-0.674,0-0.676,1.048,0,1.048
								C277.358,333.322,277.359,332.273,276.684,332.273z"/>
							<path style="fill:#FF9988;" d="M275.288,333.078c-0.119-0.03-0.239-0.059-0.357-0.01c-0.192,0.079-0.316,0.244-0.262,0.462
								c0.031,0.126,0.097,0.203,0.193,0.28c0.216,0.175,0.536,0.172,0.689-0.089C275.69,333.483,275.564,333.147,275.288,333.078z"
								/>
							<path style="fill:#FF9988;" d="M276.297,334.014c-0.247,0-0.483,0.217-0.471,0.471c0.012,0.255,0.207,0.471,0.471,0.471
								c0.246,0,0.483-0.217,0.471-0.471C276.757,334.229,276.561,334.014,276.297,334.014z"/>
						</g>
					</g>
				</g>
			</g>
			<g>
				<path style="fill:#FFD3BB;" d="M306.284,316.757c-1.303,0.546-2.64,0.965-3.975,1.422c-0.529,0.181-0.304,0.888,0.225,0.816
					c1.392-0.189,2.753-0.589,4.083-1.03C307.394,317.707,307.012,316.452,306.284,316.757z"/>
				<path style="fill:#FFD3BB;" d="M305.932,320.783c-0.332,0.092-0.664,0.185-0.996,0.277c-0.304,0.084-0.596,0.133-0.848,0.329
					c-0.192,0.15-0.054,0.429,0.131,0.496c0.279,0.101,0.607,0.037,0.901,0.023c0.32-0.015,0.639-0.03,0.959-0.046
					C306.884,321.824,306.701,320.57,305.932,320.783z"/>
				<path style="fill:#FFD3BB;" d="M307.559,323.935c-0.452,0.178-0.925,0.33-1.408,0.396c-0.426,0.058-0.871-0.006-1.199,0.312
					c-0.12,0.116-0.148,0.322-0.06,0.466c0.277,0.454,0.852,0.476,1.34,0.5c0.587,0.028,1.167-0.045,1.735-0.191
					C308.943,325.167,308.467,323.576,307.559,323.935z"/>
				<g>
					<path style="fill:#FFD3BB;" d="M322.953,332.652c-1.462-0.138-2.806-0.577-4.209-0.976c-0.514-0.146-0.77,0.553-0.351,0.833
						c1.29,0.863,2.853,1.306,4.366,1.578C323.797,334.274,324.017,332.753,322.953,332.652z"/>
					<path style="fill:#FFD3BB;" d="M323.893,328.976c-1.206,0.209-2.456,0.055-3.645,0.292c-0.254,0.051-0.284,0.422-0.071,0.542
						c1.114,0.626,2.664,0.583,3.9,0.525C325.067,330.289,324.9,328.801,323.893,328.976z"/>
					<path style="fill:#FFD3BB;" d="M323.769,324.183c-1.186,0.414-2.316,0.381-3.549,0.399c-0.41,0.006-0.589,0.581-0.214,0.788
						c1.266,0.699,2.809,0.635,4.177,0.317C325.166,325.46,324.717,323.852,323.769,324.183z"/>
					<path style="fill:#FFD3BB;" d="M322.598,313.767c-1.214,0.226-2.409,0.645-3.401,1.392c-0.296,0.223-0.142,0.819,0.279,0.663
						c1.075-0.399,2.137-0.737,3.289-0.814C323.673,314.947,323.511,313.597,322.598,313.767z"/>
					<path style="fill:#FFD3BB;" d="M322.951,316.603c-0.438,0.035-0.881,0.052-1.318,0.105c-0.285,0.034-0.659,0.058-0.897,0.247
						c-0.008,0.004-0.017,0.007-0.025,0.011c-0.141,0.063-0.176,0.24-0.152,0.374c0.069,0.386,0.535,0.426,0.845,0.468
						c0.509,0.07,1.033,0.061,1.547,0.08C323.785,317.919,323.771,316.538,322.951,316.603z"/>
					<path style="fill:#FFD3BB;" d="M340.484,334.375c-1.625,0.082-3.159-0.178-4.733-0.558c-0.566-0.137-0.967,0.688-0.411,0.974
						c1.597,0.819,3.359,1.137,5.143,1.177C341.512,335.992,341.507,334.323,340.484,334.375z"/>
					<path style="fill:#FFD3BB;" d="M341.514,330.375c-0.678,0.089-1.355,0.124-2.038,0.057c-0.603-0.059-1.484-0.112-1.931-0.569
						c-0.375-0.383-0.879,0.028-0.817,0.476c0.241,1.736,3.517,1.792,4.786,1.739C342.631,332.031,342.575,330.237,341.514,330.375z
						"/>
					<path style="fill:#FFD3BB;" d="M341.217,325.462c-1.383-0.412-2.784-0.75-4.176-1.127c-0.56-0.152-0.798,0.711-0.239,0.869
						c1.343,0.379,2.638,0.887,3.92,1.433C341.584,327.004,342.103,325.726,341.217,325.462z"/>
					<path style="fill:#FFD3BB;" d="M342.284,318.115c-1.556-0.286-3.186-0.466-4.746-0.117c-0.598,0.134-0.382,0.917,0.133,0.982
						c1.419,0.18,2.81,0.267,4.198,0.639C342.851,319.883,343.26,318.295,342.284,318.115z"/>
					<path style="fill:#FFD3BB;" d="M342.734,314.053c-1.582-0.46-3.286-0.641-4.895-0.206c-0.469,0.127-0.349,0.793,0.111,0.82
						c1.524,0.09,2.959,0.247,4.398,0.785C343.214,315.775,343.64,314.317,342.734,314.053z"/>
					<path style="fill:#FFD3BB;" d="M353.891,329.801c-1.095,0.061-2.249-0.161-3.325,0.004c-0.457,0.07-0.476,0.737-0.123,0.944
						c0.964,0.565,2.359,0.581,3.449,0.612C354.899,331.39,354.892,329.745,353.891,329.801z"/>
					<path style="fill:#FFD3BB;" d="M354.916,325.894c-1.059-0.157-2.116-0.362-3.154-0.627c-0.479-0.122-0.841,0.618-0.351,0.833
						c1.025,0.451,2.058,0.826,3.143,1.107C355.422,327.432,355.763,326.02,354.916,325.894z"/>
					<path style="fill:#FFD3BB;" d="M356.146,322.287c-1.592-0.482-3.123-1.092-4.659-1.727c-0.51-0.211-0.801,0.592-0.364,0.864
						c1.465,0.911,3.037,1.631,4.632,2.283C356.613,324.058,357.071,322.567,356.146,322.287z"/>
					<path style="fill:#FFD3BB;" d="M359.175,318.639c-1.285-0.883-2.614-1.688-3.914-2.542c-0.467-0.306-1.049,0.423-0.606,0.785
						c1.201,0.982,2.364,2.006,3.588,2.964C359.114,320.529,360.096,319.272,359.175,318.639z"/>
					<path style="fill:#FFD3BB;" d="M366.829,328.832c-0.827,0.031-1.654,0.004-2.475-0.108c-0.697-0.096-1.029,0.904-0.301,1.091
						c0.912,0.235,1.837,0.383,2.775,0.456C367.747,330.344,367.764,328.797,366.829,328.832z"/>
					<path style="fill:#FFD3BB;" d="M369.173,325.62c-1.079-0.11-2.207-0.248-3.249-0.559c-0.591-0.176-0.843,0.746-0.254,0.922
						c1.114,0.333,2.184,0.692,3.331,0.91C369.919,327.068,370.118,325.717,369.173,325.62z"/>
				</g>
			</g>
		</g>
		<g>
			<g>
				<path style="fill:#FF9988;" d="M267.372,378.985c-1.43,0.159-2.914,0.383-4.103,1.195c-2.337,1.596-2.755,4.82-2.88,7.647
					c-0.18,4.083,0.085,8.799,3.321,11.295c1.561,1.204,3.563,1.655,5.505,1.991c14.234,2.459,29.227,0.318,42.204-6.026
					c0.771-0.377,1.573-0.801,2.033-1.526c0.482-0.759,0.505-1.715,0.446-2.612c-0.26-3.979-1.919-7.821-4.541-10.814
					c-3.502-3.997-6.873-2.283-11.718-1.948C287.563,378.883,277.429,377.865,267.372,378.985z"/>
				<path style="fill:#20264C;" d="M331.795,396.629c8.413-2.163,16.826-4.326,25.239-6.488c6.412-1.648,12.942-2.412,19.393-4.07
					c3.332-0.857,6.64-1.809,9.918-2.854c2.478-0.79,6.295-3.084,8.842-3.084c6.556-1.994,13.118-4.116,19.178-7.315
					c2.855-1.507,5.648-3.304,7.604-5.873c2.607-3.424,3.471-7.99,2.828-12.245c-0.643-4.255-2.695-8.21-5.379-11.573
					c-2.197-2.753-4.889-5.195-8.12-6.6c-4.833-2.102-10.375-1.704-15.553-0.727c-12.42,2.342-24.023,7.721-35.57,12.859
					c-10.91,4.854-21.897,9.535-32.955,14.04c-10.142,4.131-21.121,7.375-30.534,13.045c-1.141,0.688-2.289,1.45-3.024,2.561
					c-2.01,3.038,0.505,11.166,1.575,14.417c3.028,9.196,9.884,10.764,18.608,8.522
					C319.827,399.706,325.811,398.168,331.795,396.629z"/>
			</g>
			<g>
				<path style="fill:#FF9988;" d="M401.381,380.673c1.43,0.159,2.914,0.383,4.103,1.195c2.337,1.596,2.755,4.82,2.88,7.647
					c0.18,4.083-0.085,8.799-3.321,11.295c-1.561,1.204-3.563,1.655-5.505,1.991c-14.234,2.459-29.227,0.318-42.204-6.026
					c-0.771-0.377-1.573-0.801-2.033-1.526c-0.482-0.759-0.505-1.715-0.446-2.612c0.261-3.979,1.919-7.821,4.541-10.814
					c3.502-3.997,6.873-2.283,11.718-1.948C381.189,380.57,391.323,379.552,401.381,380.673z"/>
				<path style="fill:#1E2144;" d="M342.864,399.442c-8.413-2.163-16.826-4.325-25.239-6.488c-6.412-1.648-12.942-2.412-19.393-4.07
					c-3.332-0.857-6.64-1.809-9.918-2.854c-2.478-0.79-6.295-3.083-8.842-3.083c-6.556-1.994-13.118-4.116-19.178-7.315
					c-2.855-1.508-5.648-3.304-7.604-5.873c-2.607-3.424-3.471-7.99-2.828-12.244c0.644-4.255,2.695-8.21,5.379-11.573
					c2.198-2.754,4.889-5.195,8.12-6.6c4.833-2.102,10.374-1.704,15.553-0.727c12.42,2.342,24.023,7.721,35.57,12.859
					c10.91,4.854,21.897,9.535,32.955,14.04c10.142,4.131,21.121,7.375,30.534,13.045c1.141,0.688,2.289,1.45,3.024,2.561
					c2.011,3.038-0.505,11.166-1.575,14.417c-3.028,9.196-9.884,10.764-18.608,8.522
					C354.831,402.519,348.848,400.98,342.864,399.442z"/>
			</g>
			<path style="fill:#FFF1E9;" d="M385.378,369.439c-4.385,5.381-10.696,8.843-16.949,11.583c-3.263,1.429-6.568,2.765-9.751,4.362
				c-1.539,0.771-3.049,1.598-4.503,2.517c-1.505,0.951-2.374,1.578-3.409,2.486c-2.5,2.194-3.898,3.814-5.184,6.841
				c0.003,0,0.003,0,0.003,0c0,0.05-0.366,1.06-0.402,1.181c-0.087,0.281-0.166,0.568-0.239,0.852
				c-0.107,0.416-0.191,0.835-0.27,1.257c-0.008,0.062-0.017,0.121-0.02,0.155c-0.062,0.801-0.098,1.598-0.053,2.402
				c0.006,0.124,0.056,0.52,0.065,0.627c0.065,0.338,0.141,0.672,0.225,1.007c0.605,2.405-0.768,4.689-3.088,5.44
				c-2.273,0.734-4.829-0.858-5.44-3.088c-2.163-7.875,1.134-16.097,6.759-21.694c4.807-4.781,10.961-7.721,17.115-10.35
				c3.195-1.364,6.407-2.706,9.521-4.258c1.502-0.751,2.973-1.561,4.385-2.475c0.607-0.394,1.201-0.807,1.786-1.235
				c0.318-0.233,0.582-0.453,1.184-0.982c2.419-2.118,3.676-3.741,5.119-6.601c0.335-0.664,0.821-2.236,1.041-3.457
				c0.014-0.084,0.025-0.135,0.034-0.163c0.003-0.056,0.006-0.124,0.011-0.203c0.02-0.329,0.048-0.658,0.056-0.99
				c0.006-0.208,0.006-0.419,0.003-0.627c1.401-0.602,2.784-1.24,4.149-1.915c0.925-0.458,1.848-0.937,2.754-1.446
				c0.022,0.093,0.045,0.183,0.065,0.276C391.904,357.724,389.676,364.163,385.378,369.439z"/>
			<g>
				<g>
					<path style="fill:#FFD3BB;" d="M255.842,339.375c-1.451,1.369-2.304,3.481-1.801,5.411c0.159,0.611,0.469,1.213,0.995,1.561
						c0.381,0.252,0.841,0.35,1.293,0.414c4.06,0.577,8.373-1.44,10.535-4.925c0.355-0.573,0.664-1.215,0.631-1.889
						c-0.045-0.894-0.7-1.667-1.483-2.1C262.815,336.078,258.428,336.935,255.842,339.375z"/>
					<path style="fill:#1E2144;" d="M259.819,347.168c-1.942-1.701-2.044-4.015-2.655-6.345c-0.107-0.407-0.684-0.3-0.708,0.096
						c-0.158,2.572,0.425,5.424,2.375,7.238C259.491,348.771,260.493,347.759,259.819,347.168z"/>
					<path style="fill:#1E2144;" d="M264.828,344.411c-0.798-0.839-1.293-1.824-1.643-2.922c-0.268-0.843-0.346-1.824-0.842-2.565
						c-0.093-0.139-0.301-0.117-0.353,0.046c-0.324,1.017,0.006,2.353,0.265,3.363c0.298,1.159,0.797,2.178,1.529,3.122
						C264.352,346.188,265.5,345.116,264.828,344.411z"/>
				</g>
				<g>
					<path style="fill:#FFD3BB;" d="M292.552,339.094c1.451,1.369,2.304,3.481,1.801,5.411c-0.159,0.611-0.469,1.213-0.995,1.561
						c-0.381,0.252-0.841,0.35-1.292,0.414c-4.061,0.577-8.373-1.44-10.535-4.925c-0.355-0.573-0.664-1.216-0.63-1.889
						c0.045-0.894,0.7-1.667,1.483-2.1C285.579,335.797,289.966,336.654,292.552,339.094z"/>
					<path style="fill:#1E2144;" d="M288.576,346.887c1.942-1.701,2.044-4.015,2.655-6.345c0.107-0.407,0.684-0.3,0.708,0.096
						c0.158,2.572-0.425,5.424-2.375,7.237C288.903,348.49,287.901,347.478,288.576,346.887z"/>
					<path style="fill:#1E2144;" d="M283.566,344.13c0.798-0.839,1.293-1.823,1.643-2.922c0.268-0.843,0.346-1.823,0.842-2.565
						c0.093-0.139,0.301-0.117,0.353,0.046c0.324,1.017-0.006,2.353-0.265,3.363c-0.298,1.159-0.797,2.178-1.529,3.122
						C284.042,345.906,282.895,344.835,283.566,344.13z"/>
				</g>
			</g>
		</g>
		<g>
			<g>
				<path style="fill:#FF9988;" d="M326.35,337.948c-0.375,0.014-0.812,0.066-1.004,0.388c-0.321,0.538,0.343,1.117,0.904,1.394
					c2.572,1.272,5.145,2.543,7.717,3.815c-3.724-0.228-7.454-0.347-11.184-0.357c-3.162-0.009-6.397,0.073-9.358,1.184
					c-0.147,0.637,0.649,1.045,1.283,1.208c3.476,0.892,6.952,1.784,10.428,2.675c-2.957,0.01-5.914,0.021-8.871,0.031
					c-1.456,0.005-3.157,0.135-3.961,1.349c3.775,1.807,7.825,3.037,11.967,3.636c-1.912,0.234-3.852-0.139-5.772,0.01
					c-1.92,0.148-4.001,1.02-4.689,2.819c4.087,0.224,8.176,0.409,12.267,0.555c-2.924,0.721-6.167,1.676-7.642,4.301
					c-0.188,0.335-0.345,0.721-0.258,1.095c0.196,0.846,1.343,0.955,2.208,0.874c5.105-0.477,10.21-0.954,15.314-1.431
					c6.716-0.628,13.501-1.269,19.903-3.396c0.391-0.13,0.799-0.278,1.068-0.589c0.349-0.403,0.385-0.982,0.4-1.515
					c0.085-3.088,0.008-6.237-0.969-9.168c-0.978-2.93-2.979-5.648-5.827-6.844c0.236,0.099-0.212,1.213-0.293,1.33
					C341.997,339.557,334.653,337.643,326.35,337.948z"/>
				<path style="fill:#FFBD5C;" d="M404.398,323.914c-0.006,0.422-0.014,0.846-0.028,1.268c-0.084,2.503-0.323,5.038-0.807,7.496
					c-0.835,4.236-2.393,8.258-5.133,11.554c-2.225,2.683-5.096,4.72-8.151,6.433c-0.906,0.509-1.828,0.987-2.754,1.446
					c-1.364,0.675-2.748,1.313-4.149,1.915c-10.269,4.416-21.413,6.795-32.59,6.95c-0.138-0.487-0.27-0.973-0.402-1.46
					c-1.643-6.154-2.703-12.463-3.161-18.817c-0.068-0.936-0.121-1.873-0.163-2.81c6.582-1.063,13.051-2.821,19.27-5.229
					c2.725-1.058,5.468-2.284,7.566-4.32c4.115-3.994,4.953-10.218,5.257-15.945c0.633-11.985-0.04-23.995-0.715-35.974
					c-0.208-3.735-1.724-7.273-2.275-10.927c3.043,1.803,4.416,3.066,6.137,4.897C395.83,284.778,404.651,304.166,404.398,323.914z"
					/>
			</g>
			<path style="fill:#F29E3B;" d="M378.09,303.701c-2.419-8.179-6.103-16.546-11.573-23.156c-0.375-0.454-1.044,0.125-0.787,0.607
				c3.889,7.296,7.407,14.525,9.376,22.606c1.725,7.081,3.176,15.604-0.956,22.148c-1.27,2.012,1.853,3.786,3.165,1.85
				C382.136,320.64,380.368,311.401,378.09,303.701z"/>
		</g>
	</g>
</g>
</svg>
